<?xml version="1.0" standalone="no"?>
<!DOCTYPE svg PUBLIC "-//W3C//DTD SVG 20010904//EN"
 "http://www.w3.org/TR/2001/REC-SVG-20010904/DTD/svg10.dtd">
<svg version="1.0" xmlns="http://www.w3.org/2000/svg"
 width="300.000000pt" height="300.000000pt" viewBox="0 0 300.000000 300.000000"
 preserveAspectRatio="xMidYMid meet">
<metadata>
Created by potrace 1.11, written by Peter Selinger 2001-2013
</metadata>
<g transform="translate(0.000000,300.000000) scale(0.100000,-0.100000)"
fill="#000000" stroke="none">
<path d="M1436 2202 c-10 -12 -26 -19 -38 -17 -18 4 -19 0 -14 -35 3 -22 1
-42 -5 -46 -16 -9 -50 27 -47 50 2 13 -3 22 -14 24 -11 2 -18 -3 -18 -12 0 -9
-5 -16 -11 -16 -5 0 -8 -4 -4 -9 3 -5 1 -12 -5 -16 -14 -9 -13 38 2 53 6 6 8
15 4 19 -4 4 -11 1 -17 -7 -8 -13 -10 -13 -19 0 -9 14 -14 7 -11 -13 1 -4 -5
-15 -14 -23 -8 -9 -16 -12 -17 -7 -4 24 -6 29 -13 45 -4 10 -11 15 -16 12 -5
-3 -7 -10 -4 -15 4 -5 -1 -12 -10 -15 -9 -4 -13 -13 -10 -24 3 -11 0 -17 -10
-17 -8 0 -15 4 -15 9 0 4 -7 8 -16 8 -11 0 -14 -5 -10 -17 4 -9 1 -20 -5 -24
-7 -4 -8 -12 -3 -20 5 -8 9 -21 9 -29 0 -8 4 -20 8 -26 12 -20 -16 -70 -36
-66 -12 2 -16 9 -12 22 7 23 -4 30 -32 19 -23 -9 -31 -35 -13 -41 14 -4 23
-58 10 -58 -5 0 -10 5 -10 10 0 6 -5 10 -10 10 -6 0 -9 -5 -8 -12 2 -6 -5 -14
-14 -16 -11 -2 -18 2 -18 12 0 10 -6 13 -15 10 -8 -4 -15 -13 -15 -21 0 -13
-3 -13 -15 -3 -13 11 -13 15 1 41 8 16 19 29 24 29 5 0 8 20 6 45 -2 32 1 45
11 45 12 0 16 10 11 28 -2 4 -6 6 -11 4 -4 -1 -6 1 -6 5 3 21 -2 33 -15 33
-11 0 -13 -9 -10 -35 4 -33 3 -35 -16 -25 -11 6 -20 16 -20 22 0 7 -6 3 -14
-7 -9 -13 -11 -27 -5 -41 9 -25 -13 -55 -26 -34 -3 5 -3 10 2 10 10 0 -19 20
-29 20 -17 0 -7 -46 12 -58 12 -7 18 -17 15 -22 -11 -18 5 -32 21 -19 11 9 14
8 14 -4 0 -24 -19 -31 -38 -14 -9 8 -30 17 -45 21 -20 5 -27 11 -23 21 3 9 0
15 -9 15 -21 0 -28 -19 -15 -35 10 -12 9 -15 -5 -15 -9 0 -15 -6 -13 -12 3 -7
14 -13 26 -13 12 0 21 -4 19 -10 -1 -5 -10 -9 -20 -9 -15 1 -17 -3 -12 -24 5
-19 3 -23 -9 -19 -22 9 -28 -21 -6 -36 13 -9 18 -22 15 -37 -5 -26 -15 -40
-15 -21 0 7 -5 9 -11 6 -5 -4 -19 3 -29 15 -17 19 -21 20 -26 7 -3 -10 -12
-13 -22 -9 -14 5 -15 3 -4 -10 10 -12 10 -21 1 -42 -7 -14 -16 -26 -21 -26 -5
0 -6 5 -3 10 3 6 1 10 -6 10 -7 0 -9 3 -6 7 4 3 -3 17 -15 30 -12 13 -18 23
-14 23 4 0 1 6 -6 14 -11 12 -15 11 -25 -7 -8 -15 -8 -28 -1 -40 13 -25 2 -53
-15 -39 -10 8 -13 6 -13 -9 0 -18 9 -24 30 -20 5 1 2 -9 -8 -23 -18 -28 -21
-51 -7 -41 5 3 17 -5 25 -17 20 -28 20 -39 1 -32 -10 4 -18 -2 -24 -17 -8 -21
-10 -22 -16 -6 -4 9 -2 24 4 31 8 9 8 16 2 20 -6 4 -15 -2 -20 -12 -22 -41 17
-109 51 -91 13 7 18 6 18 -4 0 -8 -11 -19 -25 -25 -14 -6 -25 -8 -25 -3 0 5
-7 11 -15 15 -12 4 -13 2 -6 -12 6 -11 6 -24 0 -34 -6 -11 -4 -20 6 -28 19
-16 19 -34 0 -26 -8 3 -15 1 -15 -4 0 -23 -21 -7 -26 20 -6 28 -24 43 -24 19
0 -6 -7 -9 -15 -5 -12 4 -14 -2 -10 -29 3 -23 0 -35 -8 -35 -7 0 -4 -6 6 -14
10 -8 16 -24 15 -37 -2 -19 2 -24 19 -24 12 0 25 -4 29 -8 4 -4 13 -2 20 4 8
6 14 7 18 0 4 -6 -2 -15 -13 -21 -12 -6 -18 -16 -15 -25 4 -10 0 -15 -11 -15
-11 0 -15 -7 -13 -19 2 -15 -23 -37 -112 -97 -63 -42 -116 -81 -118 -86 -2 -4
-8 -8 -13 -8 -7 0 -213 -131 -228 -146 -40 -38 196 92 246 136 7 5 15 10 17
10 3 0 32 16 63 36 32 20 68 43 80 50 13 8 24 13 25 12 2 -1 13 7 26 17 12 11
25 18 29 17 3 -2 9 0 12 5 3 5 47 33 96 63 50 30 166 101 259 158 94 58 184
112 200 122 68 38 141 85 144 93 2 4 8 7 13 7 9 0 424 251 446 270 7 6 15 10
18 10 3 0 15 6 28 14 12 8 59 37 105 65 l83 50 47 -32 c26 -17 49 -35 50 -39
2 -4 9 -8 16 -8 7 0 21 -9 31 -20 10 -11 24 -20 32 -20 7 0 13 -3 13 -8 0 -4
9 -12 20 -17 35 -18 345 -228 348 -237 2 -4 8 -8 13 -8 5 0 37 -20 72 -43 194
-136 467 -316 467 -309 0 9 -20 39 -20 30 0 -4 -11 3 -24 15 -13 12 -43 36
-65 52 -22 17 -52 40 -65 52 -14 11 -65 52 -113 89 -48 38 -93 73 -99 79 -6 5
-26 21 -44 35 -19 14 -47 36 -64 50 -17 14 -38 30 -46 37 -8 6 -54 43 -102 82
-49 39 -90 71 -93 71 -3 0 -16 10 -29 23 -56 53 -319 252 -334 252 -10 0 -90
-49 -180 -110 -90 -60 -174 -117 -188 -125 -13 -8 -78 -52 -144 -97 -114 -78
-160 -100 -85 -40 19 15 35 35 35 43 0 10 6 13 19 9 19 -6 36 17 32 42 -1 6 3
14 9 18 5 3 10 -1 10 -9 0 -26 14 -18 40 22 14 20 32 37 40 37 8 0 14 7 14 16
-1 11 5 15 17 12 26 -7 43 36 22 57 -13 13 -17 12 -35 -13 -15 -20 -23 -25
-28 -16 -12 18 41 60 58 46 10 -8 12 -5 10 14 -2 13 -7 29 -11 36 -4 6 -3 14
3 18 5 3 10 16 10 28 l-1 22 -19 -24 c-11 -13 -20 -34 -20 -48 0 -19 -4 -24
-16 -19 -8 3 -13 2 -10 -2 6 -11 -34 -46 -42 -37 -3 3 0 15 7 26 7 12 10 24 6
27 -3 4 -10 0 -16 -8 -8 -13 -10 -13 -20 0 -8 12 -9 9 -4 -10 6 -19 5 -22 -5
-14 -19 18 -3 56 21 49 16 -5 19 -1 19 22 -1 25 -2 26 -14 11 -7 -10 -16 -15
-20 -11 -7 7 22 43 36 43 4 0 8 -6 8 -14 0 -8 7 -22 16 -31 15 -15 17 -14 30
4 8 11 11 26 8 34 -3 8 -1 18 5 22 8 4 6 11 -4 21 -8 9 -12 20 -9 26 3 5 -3 4
-15 -4 -12 -7 -21 -19 -21 -26 0 -10 -4 -10 -15 2 -13 12 -14 20 -5 36 16 31
7 45 -14 22z m-239 -71 c-2 -10 0 -26 5 -35 5 -10 5 -16 -1 -16 -11 0 -32 56
-24 64 13 13 25 5 20 -13z m47 -53 c-9 -14 -23 2 -17 18 4 12 8 13 14 3 4 -7
5 -17 3 -21z m54 -27 c-12 -4 -29 20 -21 32 3 4 11 0 18 -10 9 -12 10 -19 3
-22z m129 -103 c-3 -8 -6 -5 -6 6 -1 11 2 17 5 13 3 -3 4 -12 1 -19z m-277 -8
c0 -5 -7 -10 -16 -10 -8 0 -12 5 -9 10 3 6 10 10 16 10 5 0 9 -4 9 -10z m244
-57 c-6 -43 -17 -62 -34 -63 -15 0 -3 68 15 88 11 12 21 22 23 22 2 0 0 -21
-4 -47z m-238 -129 l-2 -147 -34 -23 c-19 -13 -40 -28 -47 -34 -7 -5 -16 -10
-22 -10 -5 0 -11 -3 -13 -7 -1 -5 -18 -18 -35 -31 l-33 -23 0 202 c0 111 2
200 5 197 4 -3 24 -2 46 3 21 5 56 12 77 15 20 3 39 8 41 10 14 13 18 -23 17
-152z m174 62 c0 -11 -19 -15 -25 -6 -3 5 1 10 9 10 9 0 16 -2 16 -4z m-130
-57 c0 -5 4 -8 9 -4 6 3 14 -3 20 -12 5 -10 12 -17 15 -15 3 1 7 -1 9 -5 1 -5
-8 -9 -20 -11 -26 -4 -32 -32 -7 -32 8 0 12 5 9 10 -3 6 -2 10 3 10 6 0 12 -7
16 -15 3 -8 2 -15 -3 -15 -4 0 -18 -9 -31 -20 -13 -11 -27 -20 -32 -20 -4 0
-8 32 -8 70 0 40 4 70 10 70 6 0 10 -5 10 -11z m-490 -47 c0 -8 -12 -25 -26
-37 -17 -15 -25 -29 -21 -39 4 -9 2 -16 -3 -16 -6 0 -10 6 -10 14 0 8 -5 16
-12 18 -9 3 -6 15 10 39 12 19 22 28 22 22 0 -7 5 -13 11 -13 7 0 9 10 4 27
-5 23 -4 25 9 14 9 -8 16 -20 16 -29z m230 -17 c-7 -8 -17 -12 -22 -9 -6 4 -5
10 3 15 22 14 33 10 19 -6z m-303 -105 c-2 -24 -1 -24 -22 -4 -13 13 -14 19
-4 25 18 11 28 2 26 -21z m223 9 c0 -6 -4 -7 -10 -4 -5 3 -10 11 -10 16 0 6 5
7 10 4 6 -3 10 -11 10 -16z m-27 -36 c-3 -7 -9 -13 -14 -13 -11 0 -12 34 -2
43 9 10 22 -13 16 -30z m-206 -50 c-4 -3 -14 2 -22 13 -22 29 -18 37 7 14 12
-11 18 -23 15 -27z m247 31 c-6 16 -5 17 15 6 17 -8 20 -15 12 -24 -6 -7 -8
-15 -5 -18 3 -3 1 -9 -5 -13 -6 -3 -11 -1 -11 4 0 6 -8 11 -19 11 -13 0 -18 6
-16 23 4 32 4 33 20 11 14 -18 15 -18 9 0z m-19 -50 c29 -19 31 -32 8 -50 -22
-17 -41 -18 -25 -2 14 14 16 32 3 23 -12 -7 -33 29 -24 39 9 8 11 8 38 -10z
m-62 -32 c-5 -22 -37 -30 -47 -13 -6 9 22 26 37 23 4 -1 7 3 7 10 0 6 2 9 5 7
2 -3 2 -15 -2 -27z m137 -7 c-16 -19 -132 -91 -142 -87 -5 1 -8 -3 -8 -8 0 -7
-6 -7 -19 -1 -10 6 -20 9 -22 8 -2 -1 0 3 6 8 5 6 10 19 10 30 0 14 7 19 25
19 19 0 24 -5 22 -18 -3 -16 5 -14 55 14 32 18 62 36 68 41 15 14 19 10 5 -6z
m-350 -35 c0 -5 -4 -10 -10 -10 -5 0 -10 5 -10 10 0 6 5 10 10 10 6 0 10 -4
10 -10z m24 -94 c-6 -17 -8 -16 -20 5 -15 29 -7 46 13 27 8 -9 11 -22 7 -32z
m59 -25 c-24 -29 -36 -15 -16 20 14 23 19 26 25 14 5 -9 2 -22 -9 -34z m-183
10 c-5 -10 -7 -21 -4 -24 3 -3 1 -8 -5 -12 -12 -7 -16 47 -5 58 13 13 24 -5
14 -22z m120 -75 c0 -8 -92 -67 -97 -62 -3 3 16 19 43 35 49 32 54 34 54 27z"/>
<path d="M1986 1541 c-3 -4 -25 -6 -49 -5 -38 2 -46 -1 -57 -21 -7 -13 -10
-28 -6 -33 3 -6 0 -13 -6 -15 -7 -3 -8 -6 -3 -6 6 -1 9 -18 7 -39 -3 -32 0
-41 20 -53 32 -21 134 -18 151 5 10 14 14 69 8 130 -1 16 -58 48 -65 37z"/>
<path d="M1674 1526 c-21 -16 -28 -127 -9 -152 14 -20 128 -26 153 -8 25 18
26 144 2 161 -22 16 -124 15 -146 -1z"/>
<path d="M407 1486 c-3 -7 0 -19 6 -25 8 -8 6 -11 -7 -11 -13 0 -16 -5 -12
-16 4 -9 2 -22 -3 -28 -6 -7 -6 -18 -2 -25 7 -10 10 -9 16 8 3 12 15 21 26 21
10 0 19 7 19 15 0 8 4 15 9 15 4 0 8 13 7 30 -1 31 -10 38 -21 20 -5 -8 -11
-8 -20 0 -9 8 -14 7 -18 -4z"/>
<path d="M1671 1315 c-13 -14 -17 -35 -16 -76 1 -79 12 -89 96 -89 63 0 70 2
78 23 12 31 9 133 -5 147 -6 6 -39 12 -73 13 -51 2 -65 -1 -80 -18z"/>
<path d="M1938 1332 c-34 -2 -51 -8 -58 -22 -15 -27 -7 -139 11 -151 23 -15
135 -11 148 5 18 21 21 117 5 142 -15 24 -39 30 -106 26z"/>
</g>
</svg>
